o Sphere
v 0.000000 -0.555570 0.636835
v 0.000000 -0.831470 0.360935
v 0.000000 -0.980785 -0.000000
v 0.038060 -0.191342 0.786150
v 0.074658 -0.375330 0.729245
v 0.108386 -0.544895 0.636835
v 0.137950 -0.693520 0.512472
v 0.162212 -0.815493 0.360935
v 0.180240 -0.906127 0.188049
v 0.191342 -0.961940 0.000000
v 0.074658 -0.180240 0.786150
v 0.146447 -0.353553 0.729245
v 0.212608 -0.513280 0.636835
v 0.270598 -0.653281 0.512472
v 0.318190 -0.768178 0.360935
v 0.353553 -0.853553 0.188049
v 0.375330 -0.906127 -0.000000
v 0.108386 -0.162212 0.786150
v 0.212608 -0.318190 0.729245
v 0.308658 -0.461940 0.636835
v 0.392847 -0.587938 0.512472
v 0.461940 -0.691342 0.360935
v 0.513280 -0.768178 0.188049
v 0.544895 -0.815493 -0.000000
v 0.137950 -0.137950 0.786150
v 0.270598 -0.270598 0.729245
v 0.392847 -0.392847 0.636835
v 0.500000 -0.500000 0.512472
v 0.587938 -0.587938 0.360935
v 0.653281 -0.653281 0.188049
v 0.693520 -0.693520 -0.000000
v 0.162212 -0.108386 0.786150
v 0.318190 -0.212608 0.729245
v 0.461940 -0.308658 0.636835
v 0.587938 -0.392847 0.512472
v 0.691342 -0.461940 0.360935
v 0.768178 -0.513280 0.188049
v 0.815493 -0.544895 -0.000000
v 0.000000 0.000000 0.805365
v 0.180240 -0.074658 0.786150
v 0.353553 -0.146447 0.729245
v 0.513280 -0.212607 0.636835
v 0.653281 -0.270598 0.512472
v 0.768178 -0.318190 0.360935
v 0.853553 -0.353553 0.188049
v 0.906127 -0.375330 -0.000000
v 0.191342 -0.038060 0.786150
v 0.375330 -0.074658 0.729245
v 0.544895 -0.108386 0.636835
v 0.693520 -0.137950 0.512472
v 0.815493 -0.162212 0.360935
v 0.906127 -0.180240 0.188049
v 0.961940 -0.191342 -0.000000
v 0.195090 0.000000 0.786150
v 0.382683 0.000000 0.729245
v 0.555570 0.000000 0.636835
v 0.707107 0.000000 0.512472
v 0.831469 0.000000 0.360935
v 0.923879 0.000000 0.188049
v 0.980785 0.000000 0.000000
v 0.191342 0.038060 0.786150
v 0.375330 0.074658 0.729245
v 0.544895 0.108386 0.636835
v 0.693520 0.137950 0.512472
v 0.815493 0.162212 0.360935
v 0.906127 0.180240 0.188049
v 0.961940 0.191342 0.000000
v 0.180240 0.074658 0.786150
v 0.353553 0.146447 0.729245
v 0.513280 0.212608 0.636836
v 0.653281 0.270598 0.512473
v 0.768178 0.318190 0.360936
v 0.853553 0.353553 0.188050
v 0.906127 0.375330 0.000000
v 0.162212 0.108386 0.786150
v 0.318190 0.212608 0.729245
v 0.461940 0.308658 0.636836
v 0.587938 0.392847 0.512473
v 0.691341 0.461940 0.360936
v 0.768178 0.513280 0.188050
v 0.815493 0.544895 0.000000
v 0.137950 0.137950 0.786150
v 0.270598 0.270598 0.729245
v 0.392847 0.392847 0.636836
v 0.500000 0.500000 0.512473
v 0.587938 0.587938 0.360936
v 0.653281 0.653281 0.188050
v 0.693520 0.693520 0.000000
v 0.108386 0.162212 0.786150
v 0.212607 0.318190 0.729245
v 0.308658 0.461940 0.636836
v 0.392847 0.587938 0.512473
v 0.461940 0.691342 0.360936
v 0.513280 0.768178 0.188050
v 0.544895 0.815493 0.000000
v 0.074658 0.180240 0.786150
v 0.146447 0.353553 0.729246
v 0.212607 0.513280 0.636836
v 0.270598 0.653281 0.512473
v 0.318189 0.768178 0.360936
v 0.353553 0.853553 0.188050
v 0.375330 0.906127 0.000000
v 0.038060 0.191342 0.786151
v 0.074658 0.375330 0.729246
v 0.108386 0.544895 0.636836
v 0.137950 0.693520 0.512473
v 0.162212 0.815493 0.360936
v 0.180240 0.906127 0.188050
v 0.191342 0.961939 -0.000000
v 0.000000 0.195090 0.786151
v 0.000000 0.382683 0.729246
v 0.000000 0.555570 0.636836
v 0.000000 0.707107 0.512473
v 0.000000 0.831469 0.360936
v 0.000000 0.923879 0.188050
v 0.000000 0.980785 0.000000
v -0.038060 0.191342 0.786151
v -0.074658 0.375330 0.729246
v -0.108386 0.544895 0.636836
v -0.137950 0.693520 0.512473
v -0.162212 0.815493 0.360936
v -0.180240 0.906127 0.188050
v -0.191342 0.961939 -0.000000
v -0.074658 0.180240 0.786150
v -0.146447 0.353553 0.729246
v -0.212608 0.513280 0.636836
v -0.270598 0.653281 0.512473
v -0.318190 0.768177 0.360936
v -0.353553 0.853553 0.188050
v -0.375330 0.906127 0.000000
v -0.108386 0.162212 0.786150
v -0.212608 0.318190 0.729245
v -0.308658 0.461939 0.636836
v -0.392847 0.587938 0.512473
v -0.461940 0.691341 0.360936
v -0.513280 0.768178 0.188050
v -0.544895 0.815493 0.000000
v -0.137950 0.137950 0.786150
v -0.270598 0.270598 0.729245
v -0.392847 0.392847 0.636836
v -0.500000 0.500000 0.512473
v -0.587938 0.587937 0.360936
v -0.653281 0.653281 0.188050
v -0.693520 0.693520 0.000000
v -0.162212 0.108386 0.786150
v -0.318190 0.212607 0.729245
v -0.461940 0.308658 0.636836
v -0.587938 0.392847 0.512473
v -0.691341 0.461939 0.360936
v -0.768177 0.513280 0.188050
v -0.815493 0.544895 0.000000
v -0.180240 0.074658 0.786150
v -0.353553 0.146447 0.729245
v -0.513280 0.212607 0.636836
v -0.653281 0.270598 0.512473
v -0.768177 0.318189 0.360936
v -0.853553 0.353553 0.188050
v -0.906127 0.375330 0.000000
v -0.191342 0.038060 0.786150
v -0.375330 0.074658 0.729245
v -0.544895 0.108386 0.636835
v -0.693520 0.137950 0.512472
v -0.815493 0.162211 0.360935
v -0.906127 0.180240 0.188049
v -0.961939 0.191341 0.000000
v -0.195090 0.000000 0.786150
v -0.382683 0.000000 0.729245
v -0.555570 0.000000 0.636835
v -0.707107 0.000000 0.512472
v -0.831469 0.000000 0.360935
v -0.923879 0.000000 0.188049
v -0.980785 0.000000 0.000000
v -0.191342 -0.038060 0.786150
v -0.375330 -0.074658 0.729245
v -0.544895 -0.108386 0.636835
v -0.693520 -0.137950 0.512472
v -0.815493 -0.162212 0.360935
v -0.906127 -0.180240 0.188049
v -0.961939 -0.191342 -0.000000
v -0.180240 -0.074658 0.786150
v -0.353553 -0.146447 0.729245
v -0.513279 -0.212607 0.636835
v -0.653281 -0.270598 0.512472
v -0.768177 -0.318190 0.360935
v -0.853553 -0.353553 0.188049
v -0.906127 -0.375330 -0.000000
v -0.162212 -0.108386 0.786150
v -0.318189 -0.212607 0.729245
v -0.461939 -0.308658 0.636835
v -0.587938 -0.392847 0.512472
v -0.691341 -0.461940 0.360935
v -0.768177 -0.513280 0.188049
v -0.815493 -0.544895 -0.000000
v -0.137950 -0.137950 0.786150
v -0.270598 -0.270598 0.729245
v -0.392847 -0.392847 0.636835
v -0.500000 -0.500000 0.512472
v -0.587937 -0.587938 0.360935
v -0.653281 -0.653281 0.188049
v -0.693519 -0.693520 -0.000000
v -0.108386 -0.162212 0.786150
v -0.212607 -0.318190 0.729245
v -0.308658 -0.461939 0.636835
v -0.392847 -0.587938 0.512472
v -0.461939 -0.691341 0.360935
v -0.513280 -0.768177 0.188049
v -0.544895 -0.815493 -0.000000
v -0.074658 -0.180240 0.786150
v -0.146446 -0.353553 0.729245
v -0.212607 -0.513279 0.636835
v -0.270598 -0.653281 0.512472
v -0.318189 -0.768177 0.360935
v -0.353553 -0.853553 0.188049
v -0.375330 -0.906127 -0.000000
v -0.038060 -0.191342 0.786150
v -0.074658 -0.375330 0.729245
v -0.108386 -0.544895 0.636835
v -0.137950 -0.693520 0.512472
v -0.162211 -0.815493 0.360935
v -0.180240 -0.906127 0.188049
v -0.191341 -0.961939 0.000000
v 0.000000 -0.195090 0.786150
v 0.000000 -0.382683 0.729245
v 0.000000 -0.707107 0.512472
v 0.000000 -0.923879 0.188049
vn -0.0939 0.9529 -0.2884
vn -0.0097 0.0980 -0.9951
vn -0.0286 0.2902 -0.9566
vn -0.0464 0.4709 -0.8810
vn -0.0624 0.6332 -0.7715
vn -0.0759 0.7708 -0.6326
vn -0.0865 0.8786 -0.4696
vn -0.2248 0.7412 -0.6326
vn -0.2563 0.8448 -0.4696
vn -0.2780 0.9163 -0.2884
vn -0.0286 0.0942 -0.9951
vn -0.0846 0.2790 -0.9566
vn -0.1374 0.4528 -0.8810
vn -0.1847 0.6088 -0.7715
vn -0.1374 0.2571 -0.9566
vn -0.2231 0.4173 -0.8810
vn -0.2999 0.5611 -0.7715
vn -0.3651 0.6831 -0.6326
vn -0.4162 0.7786 -0.4696
vn -0.4514 0.8445 -0.2884
vn -0.0464 0.0869 -0.9951
vn -0.5601 0.6825 -0.4696
vn -0.6074 0.7402 -0.2884
vn -0.0625 0.0761 -0.9951
vn -0.1850 0.2254 -0.9566
vn -0.3002 0.3658 -0.8810
vn -0.4036 0.4918 -0.7715
vn -0.4913 0.5987 -0.6326
vn -0.3658 0.3002 -0.8810
vn -0.4918 0.4036 -0.7715
vn -0.5987 0.4913 -0.6326
vn -0.6825 0.5601 -0.4696
vn -0.7402 0.6074 -0.2884
vn -0.0761 0.0625 -0.9951
vn -0.2254 0.1850 -0.9566
vn -0.8445 0.4514 -0.2884
vn -0.0869 0.0464 -0.9951
vn -0.2571 0.1374 -0.9566
vn -0.4173 0.2230 -0.8810
vn -0.5611 0.2999 -0.7715
vn -0.6831 0.3651 -0.6326
vn -0.7786 0.4162 -0.4696
vn -0.4528 0.1374 -0.8810
vn -0.6088 0.1847 -0.7715
vn -0.7412 0.2248 -0.6326
vn -0.8448 0.2563 -0.4696
vn -0.9163 0.2780 -0.2884
vn -0.0942 0.0286 -0.9951
vn -0.2790 0.0846 -0.9566
vn -0.9529 0.0939 -0.2884
vn -0.0980 0.0097 -0.9951
vn -0.2902 0.0286 -0.9566
vn -0.4709 0.0464 -0.8810
vn -0.6332 0.0624 -0.7715
vn -0.7708 0.0759 -0.6326
vn -0.8786 0.0865 -0.4696
vn -0.6332 -0.0624 -0.7715
vn -0.7708 -0.0759 -0.6326
vn -0.8786 -0.0865 -0.4696
vn -0.9529 -0.0939 -0.2884
vn -0.0980 -0.0097 -0.9951
vn -0.2902 -0.0286 -0.9566
vn -0.4709 -0.0464 -0.8810
vn -0.0942 -0.0286 -0.9951
vn -0.2790 -0.0846 -0.9566
vn -0.4528 -0.1374 -0.8810
vn -0.6088 -0.1847 -0.7715
vn -0.7412 -0.2248 -0.6326
vn -0.8448 -0.2563 -0.4696
vn -0.9163 -0.2780 -0.2884
vn -0.5611 -0.2999 -0.7715
vn 0.0464 0.4709 -0.8810
vn -0.6831 -0.3651 -0.6326
vn 0.0286 0.2902 -0.9566
vn -0.7786 -0.4162 -0.4696
vn 0.0939 0.9529 -0.2884
vn -0.8445 -0.4514 -0.2884
vn 0.0846 0.2790 -0.9566
vn -0.0869 -0.0464 -0.9951
vn 0.2780 0.9163 -0.2884
vn 0.0865 0.8786 -0.4696
vn -0.2571 -0.1374 -0.9566
vn 0.0759 0.7708 -0.6326
vn -0.4173 -0.2231 -0.8810
vn 0.0624 0.6332 -0.7715
vn 0.2563 0.8448 -0.4696
vn -0.0761 -0.0625 -0.9951
vn 0.4514 0.8445 -0.2884
vn 0.2248 0.7412 -0.6326
vn -0.2254 -0.1850 -0.9566
vn 0.1847 0.6088 -0.7715
vn -0.3658 -0.3002 -0.8810
vn 0.1374 0.4528 -0.8810
vn -0.4918 -0.4036 -0.7715
vn 0.3651 0.6831 -0.6326
vn -0.5987 -0.4913 -0.6326
vn 0.2999 0.5611 -0.7715
vn -0.6825 -0.5601 -0.4696
vn 0.2230 0.4173 -0.8810
vn -0.7402 -0.6074 -0.2884
vn 0.1374 0.2571 -0.9566
vn 0.4036 0.4918 -0.7715
vn -0.4913 -0.5987 -0.6326
vn 0.3002 0.3658 -0.8810
vn -0.5601 -0.6825 -0.4696
vn 0.1850 0.2254 -0.9566
vn -0.6074 -0.7402 -0.2884
vn 0.5987 0.4913 -0.6326
vn 0.4162 0.7786 -0.4696
vn -0.0625 -0.0761 -0.9951
vn 0.4918 0.4036 -0.7715
vn 0.6074 0.7402 -0.2884
vn -0.1850 -0.2254 -0.9566
vn 0.5601 0.6825 -0.4696
vn -0.3002 -0.3658 -0.8810
vn 0.4913 0.5987 -0.6326
vn -0.4036 -0.4918 -0.7715
vn 0.4173 0.2231 -0.8810
vn 0.2254 0.1850 -0.9566
vn -0.1374 -0.2571 -0.9566
vn 0.7402 0.6074 -0.2884
vn -0.2230 -0.4173 -0.8810
vn 0.6825 0.5601 -0.4696
vn -0.2999 -0.5611 -0.7715
vn 0.8445 0.4514 -0.2884
vn -0.3651 -0.6831 -0.6326
vn 0.7786 0.4162 -0.4696
vn -0.4162 -0.7786 -0.4696
vn 0.6831 0.3651 -0.6326
vn -0.4514 -0.8445 -0.2884
vn 0.5611 0.2999 -0.7715
vn 0.3658 0.3002 -0.8810
vn -0.0464 -0.0869 -0.9951
vn 0.8448 0.2563 -0.4696
vn -0.2563 -0.8448 -0.4696
vn 0.7412 0.2248 -0.6326
vn -0.2780 -0.9163 -0.2884
vn 0.9529 0.0939 -0.2884
vn 0.2571 0.1374 -0.9566
vn -0.0286 -0.0942 -0.9951
vn 0.8786 0.0865 -0.4696
vn 0.6088 0.1847 -0.7715
vn -0.0846 -0.2790 -0.9566
vn 0.4528 0.1374 -0.8810
vn -0.1374 -0.4528 -0.8810
vn 0.2790 0.0846 -0.9566
vn -0.1847 -0.6088 -0.7715
vn 0.9163 0.2780 -0.2884
vn -0.2248 -0.7412 -0.6326
vn -0.0286 -0.2902 -0.9566
vn 0.4709 0.0464 -0.8810
vn -0.0464 -0.4709 -0.8810
vn 0.2902 0.0286 -0.9566
vn -0.0624 -0.6332 -0.7715
vn 0.6332 -0.0624 -0.7715
vn -0.0759 -0.7708 -0.6326
vn 0.4709 -0.0464 -0.8810
vn -0.0865 -0.8786 -0.4696
vn 0.2902 -0.0286 -0.9566
vn -0.0939 -0.9529 -0.2884
vn 0.9529 -0.0939 -0.2884
vn 0.7708 0.0759 -0.6326
vn -0.0097 -0.0980 -0.9951
vn 0.8786 -0.0865 -0.4696
vn 0.6332 0.0624 -0.7715
vn 0.0865 -0.8786 -0.4696
vn 0.2790 -0.0846 -0.9566
vn 0.0939 -0.9529 -0.2884
vn 0.4173 -0.2230 -0.8810
vn 0.7708 -0.0759 -0.6326
vn 0.0097 -0.0980 -0.9951
vn 0.2571 -0.1374 -0.9566
vn 0.9163 -0.2780 -0.2884
vn 0.0286 -0.2902 -0.9566
vn 0.8448 -0.2563 -0.4696
vn 0.0464 -0.4709 -0.8810
vn 0.7412 -0.2248 -0.6326
vn 0.0624 -0.6332 -0.7715
vn 0.6088 -0.1847 -0.7715
vn 0.0759 -0.7708 -0.6326
vn 0.4528 -0.1374 -0.8810
vn 0.6831 -0.3651 -0.6326
vn 0.1374 -0.4528 -0.8810
vn 0.5611 -0.2999 -0.7715
vn 0.1847 -0.6088 -0.7715
vn 0.6825 -0.5601 -0.4696
vn 0.2248 -0.7412 -0.6326
vn 0.5987 -0.4913 -0.6326
vn 0.2563 -0.8448 -0.4696
vn 0.4918 -0.4036 -0.7715
vn 0.2780 -0.9163 -0.2884
vn 0.3658 -0.3002 -0.8810
vn 0.8445 -0.4514 -0.2884
vn 0.0286 -0.0942 -0.9951
vn 0.2254 -0.1850 -0.9566
vn 0.7786 -0.4162 -0.4696
vn 0.0846 -0.2790 -0.9566
vn 0.3002 -0.3658 -0.8810
vn 0.4514 -0.8445 -0.2884
vn 0.4162 -0.7786 -0.4696
vn 0.7402 -0.6074 -0.2884
vn 0.0464 -0.0869 -0.9951
vn 0.3651 -0.6831 -0.6326
vn 0.1850 -0.2254 -0.9566
vn 0.1374 -0.2571 -0.9566
vn 0.6074 -0.7402 -0.2884
vn 0.2231 -0.4173 -0.8810
vn 0.5601 -0.6825 -0.4696
vn 0.2999 -0.5611 -0.7715
vn 0.4913 -0.5987 -0.6326
vn 0.4036 -0.4918 -0.7715
vn 0.0625 -0.0761 -0.9951
vn 0.2230 -0.4173 -0.8810
vn 0.0761 -0.0625 -0.9951
vn 0.0869 -0.0464 -0.9951
vn 0.0942 -0.0286 -0.9951
vn 0.0980 -0.0097 -0.9951
vn -0.4173 -0.2230 -0.8810
vn 0.0980 0.0097 -0.9951
vn 0.0942 0.0286 -0.9951
vn 0.0869 0.0464 -0.9951
vn 0.0761 0.0625 -0.9951
vn 0.0625 0.0761 -0.9951
vn 0.0464 0.0869 -0.9951
vn -0.2230 0.4173 -0.8810
vn 0.0286 0.0942 -0.9951
vn -0.0846 0.2790 -0.9565
vn 0.0097 0.0980 -0.9951
s 0
f 3//1 9//1 10//1
f 222//2 39//2 4//2
f 223//3 4//3 5//3
f 1//4 5//4 6//4
f 224//5 6//5 7//5
f 2//6 7//6 8//6
f 225//7 8//7 9//7
f 7//8 15//8 8//8
f 8//9 16//9 9//9
f 10//10 16//10 17//10
f 4//11 39//11 11//11
f 4//12 12//12 5//12
f 5//13 13//13 6//13
f 6//14 14//14 7//14
f 11//15 19//15 12//15
f 12//16 20//16 13//16
f 13//17 21//17 14//17
f 14//18 22//18 15//18
f 15//19 23//19 16//19
f 16//20 24//20 17//20
f 11//21 39//21 18//21
f 22//22 30//22 23//22
f 24//23 30//23 31//23
f 18//24 39//24 25//24
f 18//25 26//25 19//25
f 19//26 27//26 20//26
f 20//27 28//27 21//27
f 21//28 29//28 22//28
f 26//29 34//29 27//29
f 27//30 35//30 28//30
f 29//31 35//31 36//31
f 29//32 37//32 30//32
f 31//33 37//33 38//33
f 25//34 39//34 32//34
f 25//35 33//35 26//35
f 38//36 45//36 46//36
f 32//37 39//37 40//37
f 32//38 41//38 33//38
f 33//39 42//39 34//39
f 34//40 43//40 35//40
f 36//41 43//41 44//41
f 36//42 45//42 37//42
f 41//43 49//43 42//43
f 42//44 50//44 43//44
f 44//45 50//45 51//45
f 44//46 52//46 45//46
f 46//47 52//47 53//47
f 40//48 39//48 47//48
f 41//49 47//49 48//49
f 53//50 59//50 60//50
f 47//51 39//51 54//51
f 48//52 54//52 55//52
f 48//53 56//53 49//53
f 49//54 57//54 50//54
f 51//55 57//55 58//55
f 51//56 59//56 52//56
f 56//57 64//57 57//57
f 58//58 64//58 65//58
f 58//59 66//59 59//59
f 60//60 66//60 67//60
f 54//61 39//61 61//61
f 54//62 62//62 55//62
f 55//63 63//63 56//63
f 61//64 39//64 68//64
f 61//65 69//65 62//65
f 63//66 69//66 70//66
f 63//67 71//67 64//67
f 65//68 71//68 72//68
f 65//69 73//69 66//69
f 67//70 73//70 74//70
f 70//71 78//71 71//71
f 217//72 216//72 223//72
f 72//73 78//73 79//73
f 216//74 215//74 222//74
f 72//75 80//75 73//75
f 221//76 220//76 225//76
f 74//77 80//77 81//77
f 208//78 215//78 216//78
f 68//79 39//79 75//79
f 214//80 213//80 220//80
f 220//81 219//81 2//81
f 68//82 76//82 69//82
f 219//83 218//83 224//83
f 70//84 76//84 77//84
f 218//85 217//85 1//85
f 212//86 219//86 220//86
f 75//87 39//87 82//87
f 207//88 206//88 213//88
f 212//89 211//89 218//89
f 75//90 83//90 76//90
f 210//91 217//91 218//91
f 76//92 84//92 77//92
f 210//93 209//93 216//93
f 77//94 85//94 78//94
f 205//95 204//95 211//95
f 79//96 85//96 86//96
f 203//97 210//97 211//97
f 79//98 87//98 80//98
f 202//99 209//99 210//99
f 81//100 87//100 88//100
f 202//101 201//101 208//101
f 196//102 203//102 204//102
f 86//103 92//103 93//103
f 196//104 195//104 202//104
f 86//105 94//105 87//105
f 194//106 201//106 202//106
f 88//107 94//107 95//107
f 191//108 190//108 197//108
f 205//109 212//109 213//109
f 82//110 39//110 89//110
f 189//111 196//111 197//111
f 200//112 199//112 206//112
f 83//113 89//113 90//113
f 198//114 205//114 206//114
f 84//115 90//115 91//115
f 198//116 197//116 204//116
f 84//117 92//117 85//117
f 181//118 188//118 189//118
f 187//119 194//119 195//119
f 89//120 97//120 90//120
f 193//121 192//121 199//121
f 90//122 98//122 91//122
f 191//123 198//123 199//123
f 91//124 99//124 92//124
f 186//125 185//125 192//125
f 93//126 99//126 100//126
f 184//127 191//127 192//127
f 93//128 101//128 94//128
f 184//129 183//129 190//129
f 95//130 101//130 102//130
f 182//131 189//131 190//131
f 189//132 188//132 195//132
f 89//133 39//133 96//133
f 177//134 184//134 185//134
f 100//135 108//135 101//135
f 177//136 176//136 183//136
f 102//137 108//137 109//137
f 172//138 171//138 178//138
f 181//139 180//139 187//139
f 96//140 39//140 103//140
f 170//141 177//141 178//141
f 175//142 182//142 183//142
f 96//143 104//143 97//143
f 175//144 174//144 181//144
f 97//145 105//145 98//145
f 173//146 180//146 181//146
f 98//147 106//147 99//147
f 179//148 178//148 185//148
f 100//149 106//149 107//149
f 103//150 111//150 104//150
f 168//151 167//151 174//151
f 105//152 111//152 112//152
f 166//153 173//153 174//153
f 105//154 113//154 106//154
f 161//155 168//155 169//155
f 107//156 113//156 114//156
f 161//157 160//157 167//157
f 107//158 115//158 108//158
f 159//159 166//159 167//159
f 109//160 115//160 116//160
f 165//161 164//161 171//161
f 170//162 169//162 176//162
f 103//163 39//163 110//163
f 163//164 170//164 171//164
f 168//165 175//165 176//165
f 114//166 122//166 115//166
f 152//167 159//167 160//167
f 116//168 122//168 123//168
f 146//169 153//169 154//169
f 163//170 162//170 169//170
f 110//171 39//171 117//171
f 145//172 152//172 153//172
f 158//173 157//173 164//173
f 110//174 118//174 111//174
f 156//175 163//175 164//175
f 111//176 119//176 112//176
f 156//177 155//177 162//177
f 112//178 120//178 113//178
f 154//179 161//179 162//179
f 114//180 120//180 121//180
f 153//181 160//181 161//181
f 148//182 155//182 156//182
f 118//183 126//183 119//183
f 147//184 154//184 155//184
f 119//185 127//185 120//185
f 142//186 149//186 150//186
f 121//187 127//187 128//187
f 142//188 141//188 148//188
f 121//189 129//189 122//189
f 140//190 147//190 148//190
f 123//191 129//191 130//191
f 139//192 146//192 147//192
f 151//193 150//193 157//193
f 117//194 39//194 124//194
f 138//195 145//195 146//195
f 149//196 156//196 157//196
f 118//197 124//197 125//197
f 132//198 139//198 140//198
f 130//199 136//199 137//199
f 128//200 135//200 136//200
f 144//201 143//201 150//201
f 124//202 39//202 131//202
f 128//203 127//203 134//203
f 131//204 138//204 139//204
f 125//205 131//205 132//205
f 137//206 136//206 143//206
f 125//207 133//207 126//207
f 135//208 142//208 143//208
f 126//209 134//209 127//209
f 135//210 134//210 141//210
f 128//203 134//203 135//203
f 133//211 140//211 141//211
f 128//200 136//200 129//200
f 132//198 140//198 133//198
f 130//199 129//199 136//199
f 133//211 141//211 134//211
f 118//197 117//197 124//197
f 135//210 141//210 142//210
f 123//191 122//191 129//191
f 135//208 143//208 136//208
f 121//189 128//189 129//189
f 137//206 143//206 144//206
f 121//187 120//187 127//187
f 126//209 133//209 134//209
f 131//212 39//212 138//212
f 119//185 126//185 127//185
f 125//213 132//213 133//213
f 131//204 139//204 132//204
f 125//205 124//205 131//205
f 144//201 150//201 151//201
f 109//160 108//160 115//160
f 118//183 125//183 126//183
f 138//214 39//214 145//214
f 107//158 114//158 115//158
f 114//180 113//180 120//180
f 138//195 146//195 139//195
f 112//178 119//178 120//178
f 139//192 147//192 140//192
f 111//176 118//176 119//176
f 140//190 148//190 141//190
f 110//174 117//174 118//174
f 142//188 148//188 149//188
f 116//168 115//168 122//168
f 142//186 150//186 143//186
f 114//166 121//166 122//166
f 90//122 97//122 98//122
f 147//184 155//184 148//184
f 89//120 96//120 97//120
f 148//182 156//182 149//182
f 84//117 91//117 92//117
f 149//196 157//196 150//196
f 84//115 83//115 90//115
f 151//193 157//193 158//193
f 83//113 82//113 89//113
f 93//128 100//128 101//128
f 145//215 39//215 152//215
f 105//154 112//154 113//154
f 93//126 92//126 99//126
f 145//172 153//172 146//172
f 91//124 98//124 99//124
f 146//169 154//169 147//169
f 76//92 83//92 84//92
f 88//107 87//107 94//107
f 152//216 39//216 159//216
f 105//152 104//152 111//152
f 86//105 93//105 94//105
f 152//167 160//167 153//167
f 86//103 85//103 92//103
f 153//181 161//181 154//181
f 81//100 80//100 87//100
f 154//179 162//179 155//179
f 79//98 86//98 87//98
f 156//177 162//177 163//177
f 79//96 78//96 85//96
f 156//175 164//175 157//175
f 77//94 84//94 85//94
f 158//173 164//173 165//173
f 72//75 79//75 80//75
f 163//170 169//170 170//170
f 72//73 71//73 78//73
f 163//164 171//164 164//164
f 70//71 77//71 78//71
f 165//161 171//161 172//161
f 67//70 66//70 73//70
f 75//90 82//90 83//90
f 159//217 39//217 166//217
f 103//150 110//150 111//150
f 70//218 69//218 76//218
f 159//159 167//159 160//159
f 68//82 75//82 76//82
f 161//157 167//157 168//157
f 74//77 73//77 80//77
f 161//155 169//155 162//155
f 166//219 39//219 173//219
f 100//149 99//149 106//149
f 65//68 64//68 71//68
f 166//153 174//153 167//153
f 63//67 70//67 71//67
f 168//151 174//151 175//151
f 63//66 62//66 69//66
f 168//165 176//165 169//165
f 61//65 68//65 69//65
f 170//162 176//162 177//162
f 55//63 62//63 63//63
f 170//141 178//141 171//141
f 54//62 61//62 62//62
f 172//138 178//138 179//138
f 60//60 59//60 66//60
f 65//69 72//69 73//69
f 177//136 183//136 184//136
f 49//54 56//54 57//54
f 177//134 185//134 178//134
f 48//53 55//53 56//53
f 179//148 185//148 186//148
f 48//52 47//52 54//52
f 58//59 65//59 66//59
f 173//220 39//220 180//220
f 98//147 105//147 106//147
f 58//58 57//58 64//58
f 173//146 181//146 174//146
f 56//57 63//57 64//57
f 175//144 181//144 182//144
f 51//56 58//56 59//56
f 175//142 183//142 176//142
f 51//55 50//55 57//55
f 41//49 40//49 47//49
f 181//139 187//139 188//139
f 46//47 45//47 52//47
f 181//118 189//118 182//118
f 44//46 51//46 52//46
f 182//131 190//131 183//131
f 44//45 43//45 50//45
f 184//129 190//129 191//129
f 42//44 49//44 50//44
f 184//127 192//127 185//127
f 41//43 48//43 49//43
f 186//125 192//125 193//125
f 36//42 44//42 45//42
f 53//50 52//50 59//50
f 180//221 39//221 187//221
f 97//145 104//145 105//145
f 25//35 32//35 33//35
f 191//123 199//123 192//123
f 31//33 30//33 37//33
f 193//121 199//121 200//121
f 29//32 36//32 37//32
f 36//41 35//41 43//41
f 187//222 39//222 194//222
f 96//143 103//143 104//143
f 34//40 42//40 43//40
f 187//119 195//119 188//119
f 33//39 41//39 42//39
f 189//132 195//132 196//132
f 32//38 40//38 41//38
f 189//111 197//111 190//111
f 38//36 37//36 45//36
f 191//108 197//108 198//108
f 194//106 202//106 195//106
f 26//29 33//29 34//29
f 196//104 202//104 203//104
f 21//28 28//28 29//28
f 196//102 204//102 197//102
f 20//27 27//27 28//27
f 198//116 204//116 205//116
f 19//26 26//26 27//26
f 198//114 206//114 199//114
f 18//25 25//25 26//25
f 200//112 206//112 207//112
f 24//23 23//23 30//23
f 29//31 28//31 35//31
f 194//223 39//223 201//223
f 102//137 101//137 108//137
f 27//30 34//30 35//30
f 205//109 213//109 206//109
f 11//15 18//15 19//15
f 207//88 213//88 214//88
f 6//14 13//14 14//14
f 22//22 29//22 30//22
f 201//224 39//224 208//224
f 100//135 107//135 108//135
f 16//20 23//20 24//20
f 202//101 208//101 209//101
f 15//19 22//19 23//19
f 202//99 210//99 203//99
f 14//18 21//18 22//18
f 203//97 211//97 204//97
f 13//17 20//17 21//17
f 205//95 211//95 212//95
f 12//225 19//225 20//225
f 10//10 9//10 16//10
f 210//93 216//93 217//93
f 8//9 15//9 16//9
f 210//91 218//91 211//91
f 7//8 14//8 15//8
f 212//89 218//89 219//89
f 225//7 2//7 8//7
f 212//86 220//86 213//86
f 2//6 224//6 7//6
f 214//80 220//80 221//80
f 224//5 1//5 6//5
f 5//13 12//13 13//13
f 208//226 39//226 215//226
f 95//130 94//130 101//130
f 4//227 11//227 12//227
f 208//78 216//78 209//78
f 223//3 222//3 4//3
f 221//76 225//76 3//76
f 3//1 225//1 9//1
f 215//228 39//228 222//228
f 107//156 106//156 113//156
f 216//74 222//74 223//74
f 217//72 223//72 1//72
f 218//85 1//85 224//85
f 219//83 224//83 2//83
f 1//4 223//4 5//4
f 220//81 2//81 225//81
